<?xml version="1.0" standalone="no"?><!DOCTYPE svg PUBLIC "-//W3C//DTD SVG 1.1//EN" "http://www.w3.org/Graphics/SVG/1.1/DTD/svg11.dtd"><svg t="1769052108998" class="icon" viewBox="0 0 1024 1024" version="1.1" xmlns="http://www.w3.org/2000/svg" p-id="11680" xmlns:xlink="http://www.w3.org/1999/xlink" width="200" height="200"><path d="M922.538352 804.234968H102.919645a27.309408 27.309408 0 1 0 0 54.618816h819.618707a27.309408 27.309408 0 0 0 0-54.544047z m-518.187142-122.733453c-5.75722-3.401993-7.476908-5.607681-13.645358 0-6.878756 6.149757-40.917382 39.496769-40.917381 54.544047v27.309409a13.66405 13.66405 0 0 0 13.645358 13.645358h68.189405a13.66405 13.66405 0 0 0 13.66405-13.645358v-27.290716c-0.018692-13.794896-34.07601-50.506517-40.936074-54.56274z m163.632142 0c-5.75722-3.401993-7.476908-5.607681-13.645358 0-6.860064 6.149757-40.842613 39.440692-40.842612 54.544047v27.309409a13.66405 13.66405 0 0 0 13.66405 13.645358h68.189405a13.645358 13.645358 0 0 0 13.66405-13.645358v-27.290716c0-13.776204-34.150779-50.469132-40.99215-54.544048z m122.714761 95.461429h68.189405a13.66405 13.66405 0 0 0 13.645358-13.645358v-27.3281c0-13.776204-34.057318-50.469132-40.917382-54.544048-5.75722-3.401993-7.476908-5.607681-13.645358 0-6.878756 6.149757-40.917382 39.478077-40.917381 54.544048v27.309408a13.645358 13.645358 0 0 0 13.645358 13.645358z m-463.568326-68.189405c54.880508 40.580921 3.401993 61.366726 13.645358 68.189405 0 0 27.309408-22.729802 27.309408-40.917382s-81.853456-85.218064-81.853455-122.71476 98.826038-84.11522 231.784162-109.088095 185.240407-95.424044 177.2775-122.733452a66.619254 66.619254 0 0 0-54.544047-40.917382c-12.505129 0-43.179146-17.047351 0-54.544047s31.776861-59.086269 13.645358-68.170713-35.216239 13.645358-122.71476 13.645358-171.632434-23.888723-163.688219-40.917382 28.430944-43.216531 109.106787-40.917381-163.650834-29.552481-163.650834 40.917381c0 36.356467 136.45358 100.003651 136.453579 149.986784 0 109.387171-204.549524 87.367676-204.549523 231.784163a144.229564 144.229564 0 0 0 81.816071 136.45358z" fill="#58D1FF" p-id="11681"></path><path d="M512 0A512.037385 512.037385 0 0 0 0 512a512 512 0 0 0 1024 0A512.037385 512.037385 0 0 0 512 0zM62.05834 512A449.997736 449.997736 0 0 1 512 62.05834a448.240663 448.240663 0 0 1 284.234676 101.14388c11.776131 9.607827 22.972801 19.776423 33.646088 30.393633L179.202804 814.87087a140.285495 140.285495 0 0 1-3.308532-3.738454 447.717279 447.717279 0 0 1-113.835932-299.076339z m449.94166 449.979044a447.960279 447.960279 0 0 1-285.374904-102.0598l646.173122-616.84495a447.922894 447.922894 0 0 1 89.143442 268.925706 449.997736 449.997736 0 0 1-449.94166 449.979044z" fill="#FF5897" p-id="11682"></path></svg>